<svg viewBox="25 40 60 55" fill="none" xmlns="http://www.w3.org/2000/svg">
  <defs>
    <linearGradient id="fav-gold" x1="0" y1="0" x2="1" y2="1">
      <stop offset="0%" stop-color="#FFFBEB" />
      <stop offset="25%" stop-color="#FDE68A" />
      <stop offset="50%" stop-color="#FBBF24" />
      <stop offset="80%" stop-color="#D97706" />
      <stop offset="100%" stop-color="#78350F" />
    </linearGradient>
    <linearGradient id="fav-gold-dark" x1="0" y1="0" x2="0" y2="1">
      <stop offset="0%" stop-color="#D97706" />
      <stop offset="50%" stop-color="#92400E" />
      <stop offset="100%" stop-color="#451A03" />
    </linearGradient>
    <linearGradient id="fav-shaft-grad" x1="0" y1="0" x2="0" y2="1">
      <stop offset="0%" stop-color="#92400E" />
      <stop offset="30%" stop-color="#FDE68A" />
      <stop offset="50%" stop-color="#FFFBEB" />
      <stop offset="70%" stop-color="#FBBF24" />
      <stop offset="100%" stop-color="#78350F" />
    </linearGradient>
    <filter id="fav-shadow" x="-30%" y="-30%" width="160%" height="160%">
      <feDropShadow dx="0.5" dy="1" stdDeviation="0.8" flood-color="#000000" flood-opacity="0.4" />
    </filter>
  </defs>
  
  <g filter="url(#fav-shadow)">
    <g>
      <rect x="37" y="80" width="22" height="4" rx="1" fill="url(#fav-gold)" />
      <rect x="33" y="84" width="30" height="4" rx="1.5" fill="url(#fav-gold)" />
      <rect x="29" y="88" width="38" height="4" rx="2" fill="url(#fav-gold-dark)" />
    </g>

    <g transform="translate(80, 65)">
      <g transform="rotate(20)">
        <rect x="-29" y="-2" width="29" height="4" rx="1.5" fill="url(#fav-shaft-grad)" />
        <rect x="-6" y="-3.5" width="6" height="7" rx="1.5" fill="url(#fav-gold)" />
        <rect x="-29" y="-4.5" width="3" height="9" rx="0.8" fill="url(#fav-gold)" />
        <rect x="-39" y="-11" width="11" height="22" rx="2" fill="url(#fav-gold)" />
        <rect x="-41" y="-13.5" width="15" height="2.5" rx="0.8" fill="url(#fav-gold)" />
        <rect x="-41" y="11" width="15" height="2.5" rx="0.8" fill="url(#fav-gold)" />
      </g>
    </g>
  </g>
</svg>
